<?xml version="1.0" encoding="UTF-8"?>
<svg width="68px" height="68px" viewBox="0 0 68 68" version="1.1" xmlns="http://www.w3.org/2000/svg" xmlns:xlink="http://www.w3.org/1999/xlink">
    <!-- Generator: Sketch 53.2 (72643) - https://sketchapp.com -->
    <title>search</title>
    <desc>Created with Sketch.</desc>
    <defs>
        <path d="M57.2534173,52.5393721 L72.3570226,67.6429774 C73.6587702,68.944725 73.6587702,71.055275 72.3570226,72.3570226 C71.055275,73.6587702 68.944725,73.6587702 67.6429774,72.3570226 L52.5393721,57.2534173 C47.7150631,61.0609878 41.6228989,63.3333333 35,63.3333333 C19.3519321,63.3333333 6.66666667,50.6480679 6.66666667,35 C6.66666667,19.3519321 19.3519321,6.66666667 35,6.66666667 C50.6480679,6.66666667 63.3333333,19.3519321 63.3333333,35 C63.3333333,41.6228989 61.0609878,47.7150631 57.2534173,52.5393721 Z M50.5325298,50.1058111 C54.3287237,46.2030579 56.6666667,40.8745568 56.6666667,35 C56.6666667,23.0338304 46.9661696,13.3333333 35,13.3333333 C23.0338304,13.3333333 13.3333333,23.0338304 13.3333333,35 C13.3333333,46.9661696 23.0338304,56.6666667 35,56.6666667 C40.8745568,56.6666667 46.2030579,54.3287237 50.1058111,50.5325298 C50.1697822,50.4559478 50.2377265,50.3815616 50.3096441,50.3096441 C50.3815616,50.2377265 50.4559478,50.1697822 50.5325298,50.1058111 Z" id="path-1"></path>
    </defs>
    <g id="Page-1" stroke="none" stroke-width="1" fill="none" fill-rule="evenodd">
        <g id="search" transform="translate(-6.000000, -6.000000)">
            <mask id="mask-2" fill="white">
                <use xlink:href="#path-1"></use>
            </mask>
            <use id="Combined-Shape" fill="#000000" fill-rule="nonzero" xlink:href="#path-1"></use>
            <g id="COLOR/-black" mask="url(#mask-2)" fill="#A7A7A7" fill-rule="evenodd">
                <rect id="Rectangle" x="0" y="0" width="80" height="80"></rect>
            </g>
        </g>
    </g>
</svg>